<mxfile host="Electron" agent="Mozilla/5.0 (Windows NT 10.0; Win64; x64) AppleWebKit/537.36 (KHTML, like Gecko) draw.io/24.7.8 Chrome/128.0.6613.36 Electron/32.0.1 Safari/537.36" version="24.7.8">
  <diagram name="PÃ¡gina-1" id="09JJ-2Q4v-_cBHMZNysy">
    <mxGraphModel dx="574" dy="334" grid="1" gridSize="10" guides="1" tooltips="1" connect="1" arrows="1" fold="1" page="1" pageScale="1" pageWidth="1169" pageHeight="827" math="0" shadow="0">
      <root>
        <mxCell id="0" />
        <mxCell id="1" parent="0" />
        <mxCell id="zhuEXethNhvUOcfG38XL-1" value="Supply" style="rounded=1;whiteSpace=wrap;html=1;fillColor=#a20025;fontColor=#ffffff;strokeColor=#6F0000;" parent="1" vertex="1">
          <mxGeometry x="102" y="68.25" width="74" height="37" as="geometry" />
        </mxCell>
        <mxCell id="zhuEXethNhvUOcfG38XL-2" value="MCU" style="rounded=1;whiteSpace=wrap;html=1;fillColor=#1ba1e2;fontColor=#ffffff;strokeColor=#006EAF;" parent="1" vertex="1">
          <mxGeometry x="102" y="106.25" width="74" height="37" as="geometry" />
        </mxCell>
        <mxCell id="zhuEXethNhvUOcfG38XL-3" value="Device" style="rounded=1;whiteSpace=wrap;html=1;fillColor=#60a917;fontColor=#ffffff;strokeColor=#2D7600;" parent="1" vertex="1">
          <mxGeometry x="103" y="143.25" width="74" height="37" as="geometry" />
        </mxCell>
        <mxCell id="zhuEXethNhvUOcfG38XL-4" value="&lt;font style=&quot;font-size: 16px;&quot;&gt;LEGEND&lt;/font&gt;" style="text;html=1;align=center;verticalAlign=middle;whiteSpace=wrap;rounded=0;" parent="1" vertex="1">
          <mxGeometry x="110" y="38.25" width="60" height="30" as="geometry" />
        </mxCell>
        <mxCell id="zhuEXethNhvUOcfG38XL-5" value="" style="rounded=0;whiteSpace=wrap;html=1;gradientColor=none;fillColor=none;" parent="1" vertex="1">
          <mxGeometry x="80" y="38.25" width="120" height="190" as="geometry" />
        </mxCell>
        <mxCell id="zhuEXethNhvUOcfG38XL-6" value="Connector" style="rounded=1;whiteSpace=wrap;html=1;fillColor=#6a00ff;fontColor=#ffffff;strokeColor=#3700CC;" parent="1" vertex="1">
          <mxGeometry x="103" y="180.25" width="74" height="37" as="geometry" />
        </mxCell>
        <mxCell id="zhuEXethNhvUOcfG38XL-7" value="" style="verticalLabelPosition=bottom;shadow=0;dashed=0;align=center;fillColor=strokeColor;html=1;verticalAlign=top;strokeWidth=1;shape=mxgraph.electrical.miscellaneous.monocell_battery;direction=north;" parent="1" vertex="1">
          <mxGeometry x="530.12" y="476" width="54" height="90" as="geometry" />
        </mxCell>
        <mxCell id="zhuEXethNhvUOcfG38XL-8" value="" style="pointerEvents=1;verticalLabelPosition=bottom;shadow=0;dashed=0;align=center;html=1;verticalAlign=top;shape=mxgraph.electrical.signal_sources.signal_ground;" parent="1" vertex="1">
          <mxGeometry x="534.62" y="566" width="45" height="30" as="geometry" />
        </mxCell>
        <mxCell id="zhuEXethNhvUOcfG38XL-10" value="" style="pointerEvents=1;verticalLabelPosition=bottom;shadow=0;dashed=0;align=center;html=1;verticalAlign=top;shape=mxgraph.electrical.electro-mechanical.twoWayContact2;elSwitchState=1;direction=north;" parent="1" vertex="1">
          <mxGeometry x="542.12" y="316" width="30" height="75" as="geometry" />
        </mxCell>
        <mxCell id="zhuEXethNhvUOcfG38XL-11" value="" style="endArrow=none;html=1;rounded=0;exitX=1;exitY=0.5;exitDx=0;exitDy=0;exitPerimeter=0;" parent="1" source="zhuEXethNhvUOcfG38XL-7" edge="1">
          <mxGeometry width="50" height="50" relative="1" as="geometry">
            <mxPoint x="556.37" y="476" as="sourcePoint" />
            <mxPoint x="538.62" y="426" as="targetPoint" />
          </mxGeometry>
        </mxCell>
        <mxCell id="zhuEXethNhvUOcfG38XL-12" value="" style="endArrow=none;html=1;rounded=0;" parent="1" edge="1">
          <mxGeometry width="50" height="50" relative="1" as="geometry">
            <mxPoint x="557.0699999999999" y="431" as="sourcePoint" />
            <mxPoint x="557.0699999999999" y="391" as="targetPoint" />
          </mxGeometry>
        </mxCell>
        <mxCell id="zhuEXethNhvUOcfG38XL-13" value="" style="endArrow=none;dashed=1;html=1;dashPattern=1 3;strokeWidth=2;rounded=0;entryX=0.028;entryY=0.385;entryDx=0;entryDy=0;entryPerimeter=0;" parent="1" edge="1">
          <mxGeometry width="50" height="50" relative="1" as="geometry">
            <mxPoint x="527.5" y="436" as="sourcePoint" />
            <mxPoint x="584.12" y="436.01" as="targetPoint" />
            <Array as="points">
              <mxPoint x="557.5" y="436" />
            </Array>
          </mxGeometry>
        </mxCell>
        <mxCell id="zhuEXethNhvUOcfG38XL-14" value="K1" style="rounded=1;whiteSpace=wrap;html=1;fillColor=#60a917;fontColor=#ffffff;strokeColor=#2D7600;" parent="1" vertex="1">
          <mxGeometry x="573" y="426" width="23.38" height="26" as="geometry" />
        </mxCell>
        <mxCell id="zhuEXethNhvUOcfG38XL-15" value="NTC1" style="rounded=1;whiteSpace=wrap;html=1;fillColor=#60a917;fontColor=#ffffff;strokeColor=#2D7600;" parent="1" vertex="1">
          <mxGeometry x="482.5" y="510" width="40" height="26" as="geometry" />
        </mxCell>
        <mxCell id="zhuEXethNhvUOcfG38XL-16" value="Charge IC (MP2770)" style="rounded=1;whiteSpace=wrap;html=1;fillColor=#60a917;fontColor=#ffffff;strokeColor=#2D7600;" parent="1" vertex="1">
          <mxGeometry x="427.5" y="296" width="70" height="41" as="geometry" />
        </mxCell>
        <mxCell id="zhuEXethNhvUOcfG38XL-17" value="ADC (MCP3302)" style="rounded=1;whiteSpace=wrap;html=1;fillColor=#60a917;fontColor=#ffffff;strokeColor=#2D7600;" parent="1" vertex="1">
          <mxGeometry x="640" y="456" width="97.5" height="71" as="geometry" />
        </mxCell>
        <mxCell id="zhuEXethNhvUOcfG38XL-18" value="" style="endArrow=none;html=1;rounded=0;entryX=1;entryY=0.5;entryDx=0;entryDy=0;exitX=1;exitY=0;exitDx=0;exitDy=0;" parent="1" source="zhuEXethNhvUOcfG38XL-10" target="zhuEXethNhvUOcfG38XL-16" edge="1">
          <mxGeometry width="50" height="50" relative="1" as="geometry">
            <mxPoint x="537.5" y="316" as="sourcePoint" />
            <mxPoint x="557.5" y="296" as="targetPoint" />
          </mxGeometry>
        </mxCell>
        <mxCell id="jWppwqNt7H5n1gRvK8t4-53" value="" style="edgeStyle=orthogonalEdgeStyle;rounded=0;orthogonalLoop=1;jettySize=auto;html=1;" edge="1" parent="1" source="zhuEXethNhvUOcfG38XL-20" target="jWppwqNt7H5n1gRvK8t4-52">
          <mxGeometry relative="1" as="geometry" />
        </mxCell>
        <mxCell id="jWppwqNt7H5n1gRvK8t4-55" value="5 VDC" style="edgeLabel;html=1;align=center;verticalAlign=middle;resizable=0;points=[];" vertex="1" connectable="0" parent="jWppwqNt7H5n1gRvK8t4-53">
          <mxGeometry x="-0.1677" y="-1" relative="1" as="geometry">
            <mxPoint as="offset" />
          </mxGeometry>
        </mxCell>
        <mxCell id="zhuEXethNhvUOcfG38XL-20" value="Buck (MPQ4323)" style="rounded=1;whiteSpace=wrap;html=1;fillColor=#a20025;fontColor=#ffffff;strokeColor=#6F0000;" parent="1" vertex="1">
          <mxGeometry x="327.5" y="296" width="70" height="41" as="geometry" />
        </mxCell>
        <mxCell id="zhuEXethNhvUOcfG38XL-21" value="" style="ellipse;whiteSpace=wrap;html=1;fillColor=#FFFFFF;" parent="1" vertex="1">
          <mxGeometry x="553.56" y="486" width="7.12" height="4.75" as="geometry" />
        </mxCell>
        <mxCell id="zhuEXethNhvUOcfG38XL-22" value="" style="verticalLabelPosition=bottom;shadow=0;dashed=0;align=center;html=1;verticalAlign=top;shape=mxgraph.electrical.mosfets1.n-channel_mosfet_1;direction=east;" parent="1" vertex="1">
          <mxGeometry x="827.5" y="337.25" width="30.88" height="32.5" as="geometry" />
        </mxCell>
        <mxCell id="zhuEXethNhvUOcfG38XL-23" value="" style="verticalLabelPosition=bottom;shadow=0;dashed=0;align=center;html=1;verticalAlign=top;shape=mxgraph.electrical.abstract.operational_amp_1;" parent="1" vertex="1">
          <mxGeometry x="759.5899999999999" y="337.25" width="47.91" height="44" as="geometry" />
        </mxCell>
        <mxCell id="zhuEXethNhvUOcfG38XL-24" value="" style="endArrow=none;html=1;rounded=0;exitX=1;exitY=0.5;exitDx=0;exitDy=0;exitPerimeter=0;entryX=0;entryY=0.72;entryDx=0;entryDy=0;entryPerimeter=0;" parent="1" source="zhuEXethNhvUOcfG38XL-23" target="zhuEXethNhvUOcfG38XL-22" edge="1">
          <mxGeometry width="50" height="50" relative="1" as="geometry">
            <mxPoint x="677.5" y="386" as="sourcePoint" />
            <mxPoint x="727.5" y="336" as="targetPoint" />
          </mxGeometry>
        </mxCell>
        <mxCell id="zhuEXethNhvUOcfG38XL-26" value="" style="endArrow=none;html=1;rounded=0;exitX=0.967;exitY=0.782;exitDx=0;exitDy=0;exitPerimeter=0;entryX=0;entryY=0.835;entryDx=0;entryDy=0;entryPerimeter=0;" parent="1" source="jWppwqNt7H5n1gRvK8t4-11" target="zhuEXethNhvUOcfG38XL-23" edge="1">
          <mxGeometry width="50" height="50" relative="1" as="geometry">
            <mxPoint x="738.54" y="373.90999999999997" as="sourcePoint" />
            <mxPoint x="798.54" y="326.25" as="targetPoint" />
          </mxGeometry>
        </mxCell>
        <mxCell id="zhuEXethNhvUOcfG38XL-27" value="" style="pointerEvents=1;verticalLabelPosition=bottom;shadow=0;dashed=0;align=center;html=1;verticalAlign=top;shape=mxgraph.electrical.resistors.resistor_2;rotation=0;direction=south;" parent="1" vertex="1">
          <mxGeometry x="843.5" y="428" width="12" height="50" as="geometry" />
        </mxCell>
        <mxCell id="zhuEXethNhvUOcfG38XL-28" value="" style="pointerEvents=1;verticalLabelPosition=bottom;shadow=0;dashed=0;align=center;html=1;verticalAlign=top;shape=mxgraph.electrical.signal_sources.signal_ground;" parent="1" vertex="1">
          <mxGeometry x="827.5" y="490.75" width="45" height="30" as="geometry" />
        </mxCell>
        <mxCell id="zhuEXethNhvUOcfG38XL-29" value="" style="endArrow=classic;html=1;rounded=0;entryX=0.428;entryY=0.994;entryDx=0;entryDy=0;entryPerimeter=0;exitX=0;exitY=0.5;exitDx=0;exitDy=0;" parent="1" source="zhuEXethNhvUOcfG38XL-15" edge="1">
          <mxGeometry width="50" height="50" relative="1" as="geometry">
            <mxPoint x="480" y="523" as="sourcePoint" />
            <mxPoint x="472.46000000000004" y="337.254" as="targetPoint" />
            <Array as="points">
              <mxPoint x="472.5" y="523.5" />
            </Array>
          </mxGeometry>
        </mxCell>
        <mxCell id="zhuEXethNhvUOcfG38XL-30" value="Tcell" style="edgeLabel;html=1;align=center;verticalAlign=middle;resizable=0;points=[];" parent="zhuEXethNhvUOcfG38XL-29" vertex="1" connectable="0">
          <mxGeometry x="0.0414" y="1" relative="1" as="geometry">
            <mxPoint as="offset" />
          </mxGeometry>
        </mxCell>
        <mxCell id="zhuEXethNhvUOcfG38XL-31" value="" style="edgeStyle=orthogonalEdgeStyle;rounded=0;orthogonalLoop=1;jettySize=auto;html=1;" parent="1" target="zhuEXethNhvUOcfG38XL-17" edge="1">
          <mxGeometry relative="1" as="geometry">
            <mxPoint x="850" y="491" as="sourcePoint" />
          </mxGeometry>
        </mxCell>
        <mxCell id="jWppwqNt7H5n1gRvK8t4-70" value="Icell-&amp;nbsp;" style="edgeLabel;html=1;align=center;verticalAlign=middle;resizable=0;points=[];" vertex="1" connectable="0" parent="zhuEXethNhvUOcfG38XL-31">
          <mxGeometry x="0.1733" y="-1" relative="1" as="geometry">
            <mxPoint as="offset" />
          </mxGeometry>
        </mxCell>
        <mxCell id="zhuEXethNhvUOcfG38XL-34" value="" style="endArrow=classic;html=1;rounded=0;exitX=0.553;exitY=0.561;exitDx=0;exitDy=0;exitPerimeter=0;entryX=0.001;entryY=0.444;entryDx=0;entryDy=0;entryPerimeter=0;" parent="1" source="zhuEXethNhvUOcfG38XL-21" edge="1" target="zhuEXethNhvUOcfG38XL-17">
          <mxGeometry width="50" height="50" relative="1" as="geometry">
            <mxPoint x="647.5" y="506" as="sourcePoint" />
            <mxPoint x="640" y="490" as="targetPoint" />
          </mxGeometry>
        </mxCell>
        <mxCell id="zhuEXethNhvUOcfG38XL-35" value="Vcell" style="edgeLabel;html=1;align=center;verticalAlign=middle;resizable=0;points=[];" parent="zhuEXethNhvUOcfG38XL-34" vertex="1" connectable="0">
          <mxGeometry x="0.2253" y="-1" relative="1" as="geometry">
            <mxPoint as="offset" />
          </mxGeometry>
        </mxCell>
        <mxCell id="zhuEXethNhvUOcfG38XL-36" value="K2" style="rounded=1;whiteSpace=wrap;html=1;fillColor=#60a917;fontColor=#ffffff;strokeColor=#2D7600;" parent="1" vertex="1">
          <mxGeometry x="490.81" y="346" width="23.38" height="26" as="geometry" />
        </mxCell>
        <mxCell id="zhuEXethNhvUOcfG38XL-37" value="" style="endArrow=none;dashed=1;html=1;dashPattern=1 3;strokeWidth=2;rounded=0;entryX=0.028;entryY=0.385;entryDx=0;entryDy=0;entryPerimeter=0;" parent="1" edge="1">
          <mxGeometry width="50" height="50" relative="1" as="geometry">
            <mxPoint x="515.5" y="358.83000000000004" as="sourcePoint" />
            <mxPoint x="572.12" y="358.84000000000003" as="targetPoint" />
            <Array as="points">
              <mxPoint x="545.5" y="358.83000000000004" />
            </Array>
          </mxGeometry>
        </mxCell>
        <mxCell id="zhuEXethNhvUOcfG38XL-38" value="" style="endArrow=classic;html=1;rounded=0;entryX=0.714;entryY=0.013;entryDx=0;entryDy=0;entryPerimeter=0;" parent="1" target="zhuEXethNhvUOcfG38XL-17" edge="1">
          <mxGeometry width="50" height="50" relative="1" as="geometry">
            <mxPoint x="850" y="420" as="sourcePoint" />
            <mxPoint x="707.5" y="446" as="targetPoint" />
            <Array as="points">
              <mxPoint x="710" y="420" />
            </Array>
          </mxGeometry>
        </mxCell>
        <mxCell id="zhuEXethNhvUOcfG38XL-39" value="Icell+" style="edgeLabel;html=1;align=center;verticalAlign=middle;resizable=0;points=[];" parent="zhuEXethNhvUOcfG38XL-38" vertex="1" connectable="0">
          <mxGeometry x="-0.1542" y="1" relative="1" as="geometry">
            <mxPoint as="offset" />
          </mxGeometry>
        </mxCell>
        <mxCell id="zhuEXethNhvUOcfG38XL-40" value="" style="endArrow=none;html=1;rounded=0;exitX=0;exitY=0.5;exitDx=0;exitDy=0;exitPerimeter=0;entryX=0.7;entryY=1;entryDx=0;entryDy=0;entryPerimeter=0;" parent="1" source="zhuEXethNhvUOcfG38XL-27" target="zhuEXethNhvUOcfG38XL-22" edge="1">
          <mxGeometry width="50" height="50" relative="1" as="geometry">
            <mxPoint x="857.5" y="456" as="sourcePoint" />
            <mxPoint x="827.5" y="376" as="targetPoint" />
          </mxGeometry>
        </mxCell>
        <mxCell id="zhuEXethNhvUOcfG38XL-41" value="" style="endArrow=none;html=1;rounded=0;exitX=1;exitY=1;exitDx=0;exitDy=0;" parent="1" source="zhuEXethNhvUOcfG38XL-10" edge="1">
          <mxGeometry width="50" height="50" relative="1" as="geometry">
            <mxPoint x="577.5" y="316" as="sourcePoint" />
            <mxPoint x="847.5" y="316" as="targetPoint" />
          </mxGeometry>
        </mxCell>
        <mxCell id="zhuEXethNhvUOcfG38XL-42" value="" style="endArrow=none;html=1;rounded=0;exitX=0.7;exitY=0;exitDx=0;exitDy=0;exitPerimeter=0;" parent="1" source="zhuEXethNhvUOcfG38XL-22" edge="1">
          <mxGeometry width="50" height="50" relative="1" as="geometry">
            <mxPoint x="787.5" y="356" as="sourcePoint" />
            <mxPoint x="847.5" y="316" as="targetPoint" />
            <Array as="points" />
          </mxGeometry>
        </mxCell>
        <mxCell id="zhuEXethNhvUOcfG38XL-43" value="NTC3" style="rounded=1;whiteSpace=wrap;html=1;fillColor=#60a917;fontColor=#ffffff;strokeColor=#2D7600;" parent="1" vertex="1">
          <mxGeometry x="803.5" y="381.25" width="40" height="26" as="geometry" />
        </mxCell>
        <mxCell id="zhuEXethNhvUOcfG38XL-44" value="" style="endArrow=classic;html=1;rounded=0;entryX=0.513;entryY=-0.004;entryDx=0;entryDy=0;exitX=-0.004;exitY=0.564;exitDx=0;exitDy=0;exitPerimeter=0;entryPerimeter=0;" parent="1" source="zhuEXethNhvUOcfG38XL-43" target="zhuEXethNhvUOcfG38XL-17" edge="1">
          <mxGeometry width="50" height="50" relative="1" as="geometry">
            <mxPoint x="767.5" y="396" as="sourcePoint" />
            <mxPoint x="687.5" y="436" as="targetPoint" />
            <Array as="points">
              <mxPoint x="690" y="396" />
            </Array>
          </mxGeometry>
        </mxCell>
        <mxCell id="zhuEXethNhvUOcfG38XL-45" value="TQ" style="edgeLabel;html=1;align=center;verticalAlign=middle;resizable=0;points=[];" parent="zhuEXethNhvUOcfG38XL-44" vertex="1" connectable="0">
          <mxGeometry x="-0.2066" relative="1" as="geometry">
            <mxPoint as="offset" />
          </mxGeometry>
        </mxCell>
        <mxCell id="zhuEXethNhvUOcfG38XL-47" value="" style="endArrow=none;html=1;rounded=0;entryX=1;entryY=0.5;entryDx=0;entryDy=0;entryPerimeter=0;" parent="1" target="zhuEXethNhvUOcfG38XL-27" edge="1">
          <mxGeometry width="50" height="50" relative="1" as="geometry">
            <mxPoint x="850" y="493" as="sourcePoint" />
            <mxPoint x="880" y="443" as="targetPoint" />
          </mxGeometry>
        </mxCell>
        <mxCell id="jWppwqNt7H5n1gRvK8t4-41" style="edgeStyle=orthogonalEdgeStyle;rounded=0;orthogonalLoop=1;jettySize=auto;html=1;" edge="1" parent="1" source="jWppwqNt7H5n1gRvK8t4-1" target="zhuEXethNhvUOcfG38XL-16">
          <mxGeometry relative="1" as="geometry" />
        </mxCell>
        <mxCell id="jWppwqNt7H5n1gRvK8t4-42" style="edgeStyle=orthogonalEdgeStyle;rounded=0;orthogonalLoop=1;jettySize=auto;html=1;entryX=0.5;entryY=0;entryDx=0;entryDy=0;" edge="1" parent="1" source="jWppwqNt7H5n1gRvK8t4-1" target="zhuEXethNhvUOcfG38XL-20">
          <mxGeometry relative="1" as="geometry" />
        </mxCell>
        <mxCell id="jWppwqNt7H5n1gRvK8t4-43" value="12 VDC" style="edgeLabel;html=1;align=center;verticalAlign=middle;resizable=0;points=[];" vertex="1" connectable="0" parent="jWppwqNt7H5n1gRvK8t4-42">
          <mxGeometry x="-0.7432" y="-1" relative="1" as="geometry">
            <mxPoint as="offset" />
          </mxGeometry>
        </mxCell>
        <mxCell id="jWppwqNt7H5n1gRvK8t4-1" value="Master supply" style="rounded=1;whiteSpace=wrap;html=1;fillColor=#6a00ff;fontColor=#ffffff;strokeColor=#3700CC;" vertex="1" parent="1">
          <mxGeometry x="380" y="200" width="70" height="41" as="geometry" />
        </mxCell>
        <mxCell id="jWppwqNt7H5n1gRvK8t4-19" style="edgeStyle=orthogonalEdgeStyle;rounded=0;orthogonalLoop=1;jettySize=auto;html=1;entryX=0.175;entryY=1.009;entryDx=0;entryDy=0;entryPerimeter=0;" edge="1" parent="1" source="jWppwqNt7H5n1gRvK8t4-2" target="zhuEXethNhvUOcfG38XL-16">
          <mxGeometry relative="1" as="geometry">
            <mxPoint x="440" y="343" as="targetPoint" />
            <Array as="points">
              <mxPoint x="440" y="644" />
              <mxPoint x="440" y="480" />
            </Array>
          </mxGeometry>
        </mxCell>
        <mxCell id="jWppwqNt7H5n1gRvK8t4-20" value="I2C2" style="edgeLabel;html=1;align=center;verticalAlign=middle;resizable=0;points=[];" vertex="1" connectable="0" parent="jWppwqNt7H5n1gRvK8t4-19">
          <mxGeometry x="-0.5617" y="2" relative="1" as="geometry">
            <mxPoint as="offset" />
          </mxGeometry>
        </mxCell>
        <mxCell id="jWppwqNt7H5n1gRvK8t4-2" value="Master data" style="rounded=1;whiteSpace=wrap;html=1;fillColor=#6a00ff;fontColor=#ffffff;strokeColor=#3700CC;" vertex="1" parent="1">
          <mxGeometry x="460.12" y="623" width="469.88" height="41" as="geometry" />
        </mxCell>
        <mxCell id="jWppwqNt7H5n1gRvK8t4-35" style="edgeStyle=orthogonalEdgeStyle;rounded=0;orthogonalLoop=1;jettySize=auto;html=1;entryX=0;entryY=0.5;entryDx=0;entryDy=0;" edge="1" parent="1" source="jWppwqNt7H5n1gRvK8t4-7" target="jWppwqNt7H5n1gRvK8t4-33">
          <mxGeometry relative="1" as="geometry" />
        </mxCell>
        <mxCell id="jWppwqNt7H5n1gRvK8t4-36" style="edgeStyle=orthogonalEdgeStyle;rounded=0;orthogonalLoop=1;jettySize=auto;html=1;entryX=0;entryY=0.5;entryDx=0;entryDy=0;" edge="1" parent="1" source="jWppwqNt7H5n1gRvK8t4-7" target="jWppwqNt7H5n1gRvK8t4-16">
          <mxGeometry relative="1" as="geometry" />
        </mxCell>
        <mxCell id="jWppwqNt7H5n1gRvK8t4-37" style="edgeStyle=orthogonalEdgeStyle;rounded=0;orthogonalLoop=1;jettySize=auto;html=1;entryX=0;entryY=0.5;entryDx=0;entryDy=0;" edge="1" parent="1" source="jWppwqNt7H5n1gRvK8t4-7" target="jWppwqNt7H5n1gRvK8t4-17">
          <mxGeometry relative="1" as="geometry" />
        </mxCell>
        <mxCell id="jWppwqNt7H5n1gRvK8t4-38" style="edgeStyle=orthogonalEdgeStyle;rounded=0;orthogonalLoop=1;jettySize=auto;html=1;entryX=0;entryY=0.5;entryDx=0;entryDy=0;" edge="1" parent="1" source="jWppwqNt7H5n1gRvK8t4-7" target="jWppwqNt7H5n1gRvK8t4-31">
          <mxGeometry relative="1" as="geometry" />
        </mxCell>
        <mxCell id="jWppwqNt7H5n1gRvK8t4-96" style="edgeStyle=orthogonalEdgeStyle;rounded=0;orthogonalLoop=1;jettySize=auto;html=1;entryX=1;entryY=0.5;entryDx=0;entryDy=0;" edge="1" parent="1" source="jWppwqNt7H5n1gRvK8t4-7" target="jWppwqNt7H5n1gRvK8t4-93">
          <mxGeometry relative="1" as="geometry" />
        </mxCell>
        <mxCell id="jWppwqNt7H5n1gRvK8t4-97" value="/CS1_3V3" style="edgeLabel;html=1;align=center;verticalAlign=middle;resizable=0;points=[];" vertex="1" connectable="0" parent="jWppwqNt7H5n1gRvK8t4-96">
          <mxGeometry x="-0.3719" y="1" relative="1" as="geometry">
            <mxPoint x="21" y="-1" as="offset" />
          </mxGeometry>
        </mxCell>
        <mxCell id="jWppwqNt7H5n1gRvK8t4-7" value="IO expander&lt;div&gt;(MCP23008)&lt;/div&gt;" style="rounded=1;whiteSpace=wrap;html=1;fillColor=#60a917;fontColor=#ffffff;strokeColor=#2D7600;" vertex="1" parent="1">
          <mxGeometry x="880" y="543.74" width="70" height="41" as="geometry" />
        </mxCell>
        <mxCell id="jWppwqNt7H5n1gRvK8t4-8" value="" style="endArrow=classic;startArrow=classic;html=1;rounded=0;exitX=0.83;exitY=-0.018;exitDx=0;exitDy=0;exitPerimeter=0;entryX=0.5;entryY=1;entryDx=0;entryDy=0;" edge="1" parent="1">
          <mxGeometry width="50" height="50" relative="1" as="geometry">
            <mxPoint x="893.6204" y="623.0020000000001" as="sourcePoint" />
            <mxPoint x="893" y="584.74" as="targetPoint" />
          </mxGeometry>
        </mxCell>
        <mxCell id="jWppwqNt7H5n1gRvK8t4-18" value="I2C4" style="edgeLabel;html=1;align=center;verticalAlign=middle;resizable=0;points=[];" vertex="1" connectable="0" parent="jWppwqNt7H5n1gRvK8t4-8">
          <mxGeometry x="0.0896" y="-1" relative="1" as="geometry">
            <mxPoint x="-1" as="offset" />
          </mxGeometry>
        </mxCell>
        <mxCell id="jWppwqNt7H5n1gRvK8t4-11" value="DAC (MCP4821)" style="rounded=1;whiteSpace=wrap;html=1;fillColor=#60a917;fontColor=#ffffff;strokeColor=#2D7600;" vertex="1" parent="1">
          <mxGeometry x="640" y="349" width="70" height="32.25" as="geometry" />
        </mxCell>
        <mxCell id="jWppwqNt7H5n1gRvK8t4-16" value="To K1" style="text;html=1;align=left;verticalAlign=middle;whiteSpace=wrap;rounded=0;" vertex="1" parent="1">
          <mxGeometry x="990" y="536" width="60" height="30" as="geometry" />
        </mxCell>
        <mxCell id="jWppwqNt7H5n1gRvK8t4-17" value="To K2" style="text;html=1;align=left;verticalAlign=middle;whiteSpace=wrap;rounded=0;" vertex="1" parent="1">
          <mxGeometry x="990" y="563" width="60" height="30" as="geometry" />
        </mxCell>
        <mxCell id="jWppwqNt7H5n1gRvK8t4-22" value="" style="endArrow=classic;html=1;rounded=0;exitX=0.51;exitY=1.005;exitDx=0;exitDy=0;exitPerimeter=0;" edge="1" parent="1" source="jWppwqNt7H5n1gRvK8t4-2">
          <mxGeometry width="50" height="50" relative="1" as="geometry">
            <mxPoint x="590" y="623" as="sourcePoint" />
            <mxPoint x="700" y="713" as="targetPoint" />
          </mxGeometry>
        </mxCell>
        <mxCell id="jWppwqNt7H5n1gRvK8t4-24" value="SPI1" style="edgeLabel;html=1;align=center;verticalAlign=middle;resizable=0;points=[];" vertex="1" connectable="0" parent="jWppwqNt7H5n1gRvK8t4-22">
          <mxGeometry x="-0.1167" relative="1" as="geometry">
            <mxPoint as="offset" />
          </mxGeometry>
        </mxCell>
        <mxCell id="jWppwqNt7H5n1gRvK8t4-25" value="To MCP4821" style="text;html=1;align=center;verticalAlign=middle;whiteSpace=wrap;rounded=0;" vertex="1" parent="1">
          <mxGeometry x="661.25" y="710" width="82.5" height="30" as="geometry" />
        </mxCell>
        <mxCell id="jWppwqNt7H5n1gRvK8t4-26" value="" style="endArrow=classic;html=1;rounded=0;entryX=0;entryY=0.75;entryDx=0;entryDy=0;" edge="1" parent="1" target="jWppwqNt7H5n1gRvK8t4-11">
          <mxGeometry width="50" height="50" relative="1" as="geometry">
            <mxPoint x="600" y="373" as="sourcePoint" />
            <mxPoint x="640" y="364.88" as="targetPoint" />
          </mxGeometry>
        </mxCell>
        <mxCell id="jWppwqNt7H5n1gRvK8t4-27" value="SPI1" style="edgeLabel;html=1;align=center;verticalAlign=middle;resizable=0;points=[];" vertex="1" connectable="0" parent="jWppwqNt7H5n1gRvK8t4-26">
          <mxGeometry x="-0.2078" y="-1" relative="1" as="geometry">
            <mxPoint as="offset" />
          </mxGeometry>
        </mxCell>
        <mxCell id="jWppwqNt7H5n1gRvK8t4-28" value="" style="endArrow=classic;html=1;rounded=0;" edge="1" parent="1">
          <mxGeometry width="50" height="50" relative="1" as="geometry">
            <mxPoint x="650" y="423" as="sourcePoint" />
            <mxPoint x="650" y="383" as="targetPoint" />
          </mxGeometry>
        </mxCell>
        <mxCell id="jWppwqNt7H5n1gRvK8t4-29" value="/CS2" style="edgeLabel;html=1;align=center;verticalAlign=middle;resizable=0;points=[];" vertex="1" connectable="0" parent="jWppwqNt7H5n1gRvK8t4-28">
          <mxGeometry x="-0.2651" relative="1" as="geometry">
            <mxPoint as="offset" />
          </mxGeometry>
        </mxCell>
        <mxCell id="jWppwqNt7H5n1gRvK8t4-31" value="To /CS2" style="text;html=1;align=left;verticalAlign=middle;whiteSpace=wrap;rounded=0;" vertex="1" parent="1">
          <mxGeometry x="990" y="593" width="60" height="30" as="geometry" />
        </mxCell>
        <mxCell id="jWppwqNt7H5n1gRvK8t4-33" value="User LED" style="text;html=1;align=left;verticalAlign=middle;whiteSpace=wrap;rounded=0;" vertex="1" parent="1">
          <mxGeometry x="990" y="510" width="60" height="30" as="geometry" />
        </mxCell>
        <mxCell id="jWppwqNt7H5n1gRvK8t4-39" value="&lt;font style=&quot;font-size: 23px;&quot;&gt;ETR CELLMETER SLAVE&lt;/font&gt;" style="text;html=1;align=center;verticalAlign=middle;whiteSpace=wrap;rounded=0;" vertex="1" parent="1">
          <mxGeometry x="800" y="30" width="350" height="30" as="geometry" />
        </mxCell>
        <mxCell id="jWppwqNt7H5n1gRvK8t4-40" value="Cell" style="text;html=1;align=center;verticalAlign=middle;resizable=0;points=[];autosize=1;strokeColor=none;fillColor=none;" vertex="1" parent="1">
          <mxGeometry x="585" y="527" width="40" height="30" as="geometry" />
        </mxCell>
        <mxCell id="jWppwqNt7H5n1gRvK8t4-56" value="" style="edgeStyle=orthogonalEdgeStyle;rounded=0;orthogonalLoop=1;jettySize=auto;html=1;entryX=0.497;entryY=0.037;entryDx=0;entryDy=0;entryPerimeter=0;" edge="1" parent="1" source="jWppwqNt7H5n1gRvK8t4-52" target="jWppwqNt7H5n1gRvK8t4-66">
          <mxGeometry relative="1" as="geometry">
            <mxPoint x="362.5200000000001" y="448" as="targetPoint" />
          </mxGeometry>
        </mxCell>
        <mxCell id="jWppwqNt7H5n1gRvK8t4-52" value="LDO" style="rounded=1;whiteSpace=wrap;html=1;fillColor=#a20025;fontColor=#ffffff;strokeColor=#6F0000;" vertex="1" parent="1">
          <mxGeometry x="327.5" y="381.25" width="70" height="41" as="geometry" />
        </mxCell>
        <mxCell id="jWppwqNt7H5n1gRvK8t4-58" value="" style="edgeStyle=orthogonalEdgeStyle;rounded=0;orthogonalLoop=1;jettySize=auto;html=1;" edge="1" parent="1" source="jWppwqNt7H5n1gRvK8t4-57" target="jWppwqNt7H5n1gRvK8t4-7">
          <mxGeometry relative="1" as="geometry" />
        </mxCell>
        <mxCell id="jWppwqNt7H5n1gRvK8t4-57" value="3V3" style="text;html=1;align=center;verticalAlign=middle;whiteSpace=wrap;rounded=0;" vertex="1" parent="1">
          <mxGeometry x="899" y="497.75" width="32" height="16" as="geometry" />
        </mxCell>
        <mxCell id="jWppwqNt7H5n1gRvK8t4-66" value="3V3" style="text;html=1;align=center;verticalAlign=middle;whiteSpace=wrap;rounded=0;" vertex="1" parent="1">
          <mxGeometry x="346.5" y="452" width="32" height="16" as="geometry" />
        </mxCell>
        <mxCell id="jWppwqNt7H5n1gRvK8t4-69" style="edgeStyle=orthogonalEdgeStyle;rounded=0;orthogonalLoop=1;jettySize=auto;html=1;entryX=0.5;entryY=0;entryDx=0;entryDy=0;" edge="1" parent="1" source="jWppwqNt7H5n1gRvK8t4-67" target="jWppwqNt7H5n1gRvK8t4-11">
          <mxGeometry relative="1" as="geometry" />
        </mxCell>
        <mxCell id="jWppwqNt7H5n1gRvK8t4-67" value="3V3" style="text;html=1;align=center;verticalAlign=middle;whiteSpace=wrap;rounded=0;" vertex="1" parent="1">
          <mxGeometry x="711.75" y="321" width="32" height="16" as="geometry" />
        </mxCell>
        <mxCell id="jWppwqNt7H5n1gRvK8t4-74" value="" style="endArrow=none;html=1;rounded=0;entryX=0;entryY=0.5;entryDx=0;entryDy=0;entryPerimeter=0;exitX=0.462;exitY=-0.007;exitDx=0;exitDy=0;exitPerimeter=0;" edge="1" parent="1" source="jWppwqNt7H5n1gRvK8t4-2">
          <mxGeometry width="50" height="50" relative="1" as="geometry">
            <mxPoint x="680" y="620" as="sourcePoint" />
            <mxPoint x="677.4999999999999" y="602.74" as="targetPoint" />
          </mxGeometry>
        </mxCell>
        <mxCell id="jWppwqNt7H5n1gRvK8t4-76" value="" style="endArrow=classic;html=1;rounded=0;exitX=1;exitY=0.5;exitDx=0;exitDy=0;exitPerimeter=0;entryX=0.382;entryY=0.987;entryDx=0;entryDy=0;entryPerimeter=0;" edge="1" parent="1" target="zhuEXethNhvUOcfG38XL-17">
          <mxGeometry width="50" height="50" relative="1" as="geometry">
            <mxPoint x="677.4999999999999" y="584.74" as="sourcePoint" />
            <mxPoint x="680" y="530" as="targetPoint" />
          </mxGeometry>
        </mxCell>
        <mxCell id="jWppwqNt7H5n1gRvK8t4-87" value="MOSI" style="edgeLabel;html=1;align=center;verticalAlign=middle;resizable=0;points=[];" vertex="1" connectable="0" parent="jWppwqNt7H5n1gRvK8t4-76">
          <mxGeometry x="0.1862" y="1" relative="1" as="geometry">
            <mxPoint x="-1" y="-7" as="offset" />
          </mxGeometry>
        </mxCell>
        <mxCell id="jWppwqNt7H5n1gRvK8t4-77" value="" style="endArrow=none;html=1;rounded=0;exitX=0.066;exitY=0.518;exitDx=0;exitDy=0;exitPerimeter=0;entryX=0.587;entryY=1.006;entryDx=0;entryDy=0;entryPerimeter=0;" edge="1" parent="1" target="zhuEXethNhvUOcfG38XL-17">
          <mxGeometry width="50" height="50" relative="1" as="geometry">
            <mxPoint x="697.1399999999999" y="585.928" as="sourcePoint" />
            <mxPoint x="700" y="530" as="targetPoint" />
          </mxGeometry>
        </mxCell>
        <mxCell id="jWppwqNt7H5n1gRvK8t4-88" value="MISO" style="edgeLabel;html=1;align=center;verticalAlign=middle;resizable=0;points=[];" vertex="1" connectable="0" parent="jWppwqNt7H5n1gRvK8t4-77">
          <mxGeometry x="-0.5677" y="1" relative="1" as="geometry">
            <mxPoint x="-1" y="-7" as="offset" />
          </mxGeometry>
        </mxCell>
        <mxCell id="jWppwqNt7H5n1gRvK8t4-80" value="" style="endArrow=classic;html=1;rounded=0;exitX=1;exitY=0.5;exitDx=0;exitDy=0;exitPerimeter=0;entryX=0.506;entryY=0.011;entryDx=0;entryDy=0;entryPerimeter=0;" edge="1" parent="1" target="jWppwqNt7H5n1gRvK8t4-2">
          <mxGeometry width="50" height="50" relative="1" as="geometry">
            <mxPoint x="697.4999999999999" y="602.74" as="sourcePoint" />
            <mxPoint x="710" y="610" as="targetPoint" />
          </mxGeometry>
        </mxCell>
        <mxCell id="jWppwqNt7H5n1gRvK8t4-84" value="" style="endArrow=none;html=1;rounded=0;entryX=0;entryY=0.5;entryDx=0;entryDy=0;entryPerimeter=0;exitX=0.462;exitY=-0.007;exitDx=0;exitDy=0;exitPerimeter=0;" edge="1" parent="1">
          <mxGeometry width="50" height="50" relative="1" as="geometry">
            <mxPoint x="650.75" y="623" as="sourcePoint" />
            <mxPoint x="651.2499999999999" y="602.74" as="targetPoint" />
          </mxGeometry>
        </mxCell>
        <mxCell id="jWppwqNt7H5n1gRvK8t4-85" value="" style="endArrow=classic;html=1;rounded=0;exitX=1;exitY=0.5;exitDx=0;exitDy=0;exitPerimeter=0;entryX=0.123;entryY=0.991;entryDx=0;entryDy=0;entryPerimeter=0;" edge="1" parent="1" target="zhuEXethNhvUOcfG38XL-17">
          <mxGeometry width="50" height="50" relative="1" as="geometry">
            <mxPoint x="651.2499999999999" y="584.74" as="sourcePoint" />
            <mxPoint x="650.75" y="527" as="targetPoint" />
          </mxGeometry>
        </mxCell>
        <mxCell id="jWppwqNt7H5n1gRvK8t4-86" value="SCLK" style="edgeLabel;html=1;align=center;verticalAlign=middle;resizable=0;points=[];" vertex="1" connectable="0" parent="jWppwqNt7H5n1gRvK8t4-85">
          <mxGeometry x="-0.2702" y="-1" relative="1" as="geometry">
            <mxPoint x="-2" y="2" as="offset" />
          </mxGeometry>
        </mxCell>
        <mxCell id="jWppwqNt7H5n1gRvK8t4-91" style="edgeStyle=orthogonalEdgeStyle;rounded=0;orthogonalLoop=1;jettySize=auto;html=1;entryX=0.25;entryY=0;entryDx=0;entryDy=0;" edge="1" parent="1" source="jWppwqNt7H5n1gRvK8t4-90" target="zhuEXethNhvUOcfG38XL-17">
          <mxGeometry relative="1" as="geometry">
            <Array as="points">
              <mxPoint x="664" y="442" />
            </Array>
          </mxGeometry>
        </mxCell>
        <mxCell id="jWppwqNt7H5n1gRvK8t4-90" value="5 VDC" style="text;html=1;align=center;verticalAlign=middle;whiteSpace=wrap;rounded=0;" vertex="1" parent="1">
          <mxGeometry x="610" y="432" width="40" height="20" as="geometry" />
        </mxCell>
        <mxCell id="jWppwqNt7H5n1gRvK8t4-93" value="Level shifter&lt;div&gt;(ST2378ETTR)&lt;/div&gt;" style="rounded=1;whiteSpace=wrap;html=1;fillColor=#60a917;fontColor=#ffffff;strokeColor=#2D7600;" vertex="1" parent="1">
          <mxGeometry x="625" y="580" width="125" height="30" as="geometry" />
        </mxCell>
        <mxCell id="jWppwqNt7H5n1gRvK8t4-94" value="" style="endArrow=classic;html=1;rounded=0;exitX=0.792;exitY=-0.039;exitDx=0;exitDy=0;exitPerimeter=0;entryX=0.858;entryY=0.998;entryDx=0;entryDy=0;entryPerimeter=0;" edge="1" parent="1" source="jWppwqNt7H5n1gRvK8t4-93" target="zhuEXethNhvUOcfG38XL-17">
          <mxGeometry width="50" height="50" relative="1" as="geometry">
            <mxPoint x="650" y="630" as="sourcePoint" />
            <mxPoint x="719" y="527" as="targetPoint" />
          </mxGeometry>
        </mxCell>
        <mxCell id="jWppwqNt7H5n1gRvK8t4-95" value="/CS1_5V" style="edgeLabel;html=1;align=center;verticalAlign=middle;resizable=0;points=[];" vertex="1" connectable="0" parent="jWppwqNt7H5n1gRvK8t4-94">
          <mxGeometry x="0.2075" relative="1" as="geometry">
            <mxPoint as="offset" />
          </mxGeometry>
        </mxCell>
      </root>
    </mxGraphModel>
  </diagram>
</mxfile>
